<svg width="24" height="24" viewBox="0 0 24 24" fill="none" xmlns="http://www.w3.org/2000/svg">
<rect width="24" height="24" fill="#462D7A"/>
<path d="M7.51972 9.98062C7.85744 9.64491 8.60894 8.92163 9.8066 8.63879C10.6585 8.43757 11.3447 8.57309 11.6144 8.63879C16.131 9.73782 17.8741 18.9967 15.8111 20.2564C15.2565 20.5951 14.362 20.395 13.8274 20.087C12.0671 19.0716 12.2467 16.3464 11.4299 16.3022C11.1542 16.2873 11.0442 16.5999 10.3019 17.5824C9.24284 18.9838 8.60301 19.8123 7.64704 20.1937C7.51055 20.2481 6.19528 20.8133 5.38983 20.2569C3.31011 18.8196 5.23014 12.2572 7.52026 9.98113L7.51972 9.98062ZM10.5576 10.517C9.07991 10.4904 8.05543 12.4785 8.5086 13.3172C9.05294 14.3244 12.0422 14.2546 12.5423 13.1478C12.9313 12.2865 11.9284 10.5417 10.5576 10.5176V10.517Z" fill="white"/>
<path d="M5.02353 7.65114C4.67016 9.0751 18.6429 13.5015 19.458 12.2536C19.9565 11.4903 15.9568 7.96119 10.6358 7.2451C8.52857 6.96174 5.18969 6.98125 5.02353 7.65114Z" fill="white"/>
<path d="M8.80153 8.02329C8.82365 7.75379 9.15273 7.72864 10.3579 7.02641C11.8129 6.17891 11.9144 5.87759 13.4255 4.93051C15.0477 3.91361 16.0398 3.29095 16.3829 3.56455C16.9073 3.98291 15.0245 5.78879 15.2333 8.66443C15.2802 9.31173 15.4016 9.57764 15.1869 9.84559C14.2023 11.075 8.70927 9.14336 8.80207 8.02329H8.80153Z" fill="white"/>
</svg>
