<svg width="24" height="24" viewBox="0 0 24 24" fill="none" xmlns="http://www.w3.org/2000/svg">
<rect width="24" height="24" fill="#31738F"/>
<path d="M8.93206 7C7.56974 7 6.40407 7.48635 5.43456 8.45907C4.47805 9.445 4 10.6307 4 12.0163C5.77987 12.0342 6.14194 12.0212 7.08243 12.0167C7.08327 12.0166 7.08398 12.0165 7.08486 12.0163C7.09817 10.9982 7.86327 10.2488 8.93206 10.1376C9.42993 10.1376 9.85572 10.3241 10.2093 10.6974C10.5104 11.0036 10.8774 11.1567 11.3101 11.1567C11.7418 11.1567 12.1087 11.0036 12.4102 10.6974C12.7113 10.3909 12.8621 10.0177 12.8621 9.57778C12.8621 9.13849 12.7113 8.76564 12.4102 8.4591C11.4407 7.48639 10.2814 7 8.93206 7ZM7.08243 12.0167C5.86907 10.0132 5.86154 12.0473 4 12.0163C4 13.4019 4.4784 14.5384 5.43491 15.5243C6.40438 16.497 7.56991 16.9834 8.9322 16.9834C10.2816 16.9834 11.441 16.497 12.4105 15.5243C12.7116 15.2178 12.8622 14.8449 12.8622 14.4056C12.8622 13.9657 12.7116 13.5925 12.4105 13.286C12.1091 12.9798 11.7421 12.8267 11.3105 12.8267C10.8777 12.8267 10.5108 12.9798 10.2097 13.286C9.85603 13.6593 9.43007 13.8456 8.9322 13.8456C7.86342 13.7344 7.09792 13.0349 7.08461 12.0168C7.08377 12.0168 7.08327 12.0167 7.08243 12.0167ZM16.2933 9.47494C15.2792 9.47494 14.4078 9.84044 13.6792 10.5714C13.4529 10.8018 13.3396 11.0821 13.3396 11.4122C13.3396 11.7428 13.4529 12.0234 13.6792 12.2537C13.9057 12.4838 14.1815 12.5988 14.506 12.5988C14.8312 12.5988 15.1071 12.4838 15.3333 12.2537C15.5991 11.9732 15.9191 11.833 16.2932 11.833C16.6769 11.833 17.0068 11.9681 17.2825 12.2384C17.5485 12.5189 17.6816 12.8545 17.6816 13.245C17.6816 13.6253 17.5434 13.9507 17.2677 14.2213C17.1298 14.3715 16.9624 14.4716 16.7658 14.5217C16.7161 14.5316 16.6769 14.5266 16.6475 14.5068C16.6277 14.4765 16.6378 14.4465 16.6772 14.4165L16.9725 14.1011C17.199 13.8707 17.3123 13.5953 17.3123 13.2751C17.3123 12.9447 17.214 12.6793 17.0171 12.479C16.8203 12.2786 16.5444 12.1785 16.1898 12.1785C15.9437 12.1785 15.6978 12.3035 15.4517 12.5537L13.7384 14.2811C13.5118 14.5117 13.3987 14.7922 13.3987 15.1224C13.3987 15.453 13.5118 15.7332 13.7384 15.9633C14.4275 16.6544 15.2792 17 16.2933 17C17.3171 17 18.1931 16.6295 18.9217 15.8885C19.6406 15.1575 20 14.2763 20 13.2449C20 12.2036 19.6406 11.3124 18.9217 10.5714C18.1931 9.84034 17.3171 9.47494 16.2933 9.47494Z" fill="white"/>
</svg>
