<svg width="24" height="24" viewBox="0 0 24 24" fill="none" xmlns="http://www.w3.org/2000/svg">
<rect width="24" height="24" fill="#5E0002"/>
<path d="M11.8103 5.98262C9.7624 5.95254 7.72565 5.67525 5.74427 5.1568C5.84833 5.68048 6.13033 6.21761 6.41567 6.6708C6.65066 7.04006 7.04005 7.3254 7.36903 7.61074C6.6114 9.03356 6.39097 10.6815 6.74801 12.2534C6.10758 12.3737 5.52732 12.7088 5.10308 13.2034C4.68149 13.7082 4.43008 14.3332 4.38471 14.9893C4.33771 15.6406 4.48205 16.2985 4.76404 16.8893C5.05609 17.4969 5.50257 18.0374 6.06654 18.4067C6.6305 18.776 7.31532 18.9673 7.9867 18.9068C8.50353 18.8586 8.99656 18.6667 9.41006 18.353C10.8368 19.0579 12.5723 19.1083 14.0359 18.4839C15.3854 17.9065 16.4832 16.7718 17.0136 15.4055L18.6182 14.7241C18.7722 14.6643 18.9187 14.5866 19.0546 14.4925C19.1901 14.3951 19.2968 14.2629 19.3634 14.1098C19.4245 13.954 19.4408 13.7842 19.4104 13.6197C19.3766 13.4564 19.3213 13.2984 19.2459 13.1497L18.9102 12.4112C18.9862 12.3762 19.0602 12.337 19.1318 12.2937C19.2454 12.2305 19.3494 12.1514 19.4406 12.0587C19.5309 11.9635 19.5975 11.8485 19.6353 11.723C19.6705 11.5983 19.6751 11.4671 19.6487 11.3403C19.6191 11.2144 19.574 11.0926 19.5145 10.9777L18.9404 9.72225C18.8804 9.57984 18.8026 9.44561 18.7088 9.32276C18.6121 9.20171 18.4845 9.10893 18.3395 9.0542C18.194 9.00366 18.0378 8.99211 17.8864 9.02065C17.736 9.05261 17.5897 9.10102 17.4499 9.165L16.7685 9.45036C16.6879 9.04417 16.6309 8.64465 16.463 8.26532C16.3153 7.93634 16.2784 7.84909 16.0703 7.55368C16.5182 7.3465 16.9106 7.03583 17.215 6.64729C17.5511 6.21903 17.7749 5.71362 17.8662 5.17693C15.7413 5.83153 13.6264 5.99269 11.8103 5.98262Z" fill="url(#paint0_linear_322_348)"/>
<path d="M17.8125 10.1788C17.7856 10.1788 17.7688 10.1889 17.7454 10.1922C17.7018 10.2049 17.6592 10.2206 17.6178 10.2392L10.9475 13.1665C11.0028 13.3818 10.9982 13.6082 10.9343 13.8212C10.8704 14.0341 10.7496 14.2256 10.585 14.375C10.4305 14.5093 10.2493 14.61 10.0478 14.6671C9.85171 14.7246 9.64796 14.7517 9.44362 14.7476C8.98985 14.7419 8.54502 14.6206 8.15118 14.3951C7.70197 14.1374 7.33346 13.7596 7.08703 13.3041C6.64558 13.3164 6.22542 13.4964 5.9121 13.8076C5.57319 14.1651 5.37728 14.6346 5.36156 15.1269C5.3483 15.6148 5.46042 16.098 5.68718 16.5301C5.92421 17.0273 6.30558 17.4414 6.78153 17.7185C7.01988 17.8528 7.28508 17.9367 7.56035 17.9602C7.83476 17.9867 8.11146 17.9452 8.36601 17.8394C8.80559 17.6356 9.14955 17.27 9.32611 16.8188C9.49682 16.4083 9.54577 15.9573 9.4671 15.5197L13.6163 13.6868L14.2205 15.0565C14.2408 15.0968 14.2632 15.136 14.2877 15.1739C14.3112 15.2075 14.3481 15.2411 14.385 15.2579C14.4253 15.278 14.4723 15.2814 14.5159 15.278C14.5598 15.2738 14.6022 15.2601 14.6402 15.2377L15.5398 14.8349C15.5763 14.8179 15.6111 14.7977 15.6439 14.7745C15.6756 14.7482 15.6989 14.7132 15.711 14.6738C15.7223 14.6354 15.7223 14.5946 15.711 14.5563C15.7043 14.516 15.6842 14.4824 15.6707 14.4455L15.0464 13.0456L16.087 12.5924L16.7248 14.0829C16.741 14.1226 16.7624 14.1599 16.7886 14.1937C16.8155 14.2306 16.849 14.2575 16.8927 14.2709C16.9344 14.2827 16.9785 14.2827 17.0202 14.2709C17.062 14.2625 17.1026 14.249 17.1411 14.2306L18.0475 13.8345C18.081 13.8177 18.1213 13.8009 18.1482 13.7741C18.1787 13.748 18.2 13.7126 18.2086 13.6734C18.2175 13.6346 18.2163 13.5941 18.2052 13.5559C18.1951 13.5174 18.1804 13.4802 18.1616 13.4451L17.4902 11.9815L18.3294 11.6055L18.4301 11.5552C18.4604 11.5354 18.4857 11.509 18.504 11.4779C18.5237 11.4458 18.532 11.4079 18.5275 11.3705C18.5275 11.3369 18.5074 11.3034 18.4939 11.2698L18.0642 10.3735C18.0441 10.3332 18.0273 10.2929 17.9938 10.2594C17.9459 10.2107 17.8807 10.1796 17.8125 10.1788ZM7.28508 14.7443H7.31866C7.62414 14.7443 7.93299 14.9792 8.09077 15.3183C8.29554 15.7714 8.17133 16.275 7.81214 16.4395C7.45295 16.6007 6.9964 16.3656 6.78827 15.9124C6.5835 15.4593 6.70768 14.9591 7.06352 14.7946C7.13409 14.7657 7.20896 14.7487 7.28508 14.7443ZM13.3007 6.84869C12.976 6.85058 12.6574 6.93779 12.377 7.10158C12.0965 7.26537 11.864 7.49998 11.7028 7.78193C11.5344 7.47893 11.2818 7.23116 10.9756 7.06854C10.6694 6.90592 10.3227 6.83542 9.97736 6.86549C9.53123 6.90804 9.11614 7.11254 8.81058 7.44037C8.50501 7.7682 8.33013 8.19665 8.31902 8.64467C8.30968 9.04394 8.41451 9.43756 8.62116 9.77931C8.82257 10.1184 9.11126 10.4071 9.44024 10.6253C10.1049 11.0617 10.9173 11.2161 11.7095 11.2194C12.5286 11.2262 13.3746 11.0751 14.0594 10.6219C14.4032 10.3966 14.6885 10.0928 14.8919 9.73567C15.0933 9.37648 15.1941 8.96356 15.1605 8.55401C15.1193 8.10015 14.9143 7.67683 14.5838 7.36302C14.2533 7.04922 13.8199 6.86639 13.3645 6.84869H13.3007ZM10.1251 7.42946C10.4579 7.43033 10.7785 7.55476 11.0247 7.7786C11.2832 8.01358 11.4444 8.35932 11.4578 8.70845L10.5615 8.72858C10.5707 8.66397 10.5659 8.59814 10.5474 8.53557C10.5288 8.473 10.497 8.41515 10.454 8.36602C10.4105 8.31765 10.3571 8.27918 10.2975 8.25313C10.2379 8.22707 10.1734 8.21405 10.1083 8.21496C10.0441 8.21651 9.98099 8.2317 9.92312 8.25948C9.86524 8.28726 9.81395 8.32701 9.7726 8.37611C9.73219 8.42646 9.7029 8.4848 9.6867 8.5473C9.67049 8.60979 9.66774 8.67503 9.6786 8.73867L8.79908 8.7588C8.79908 8.4231 8.93336 8.09075 9.16834 7.85241C9.29204 7.72369 9.43993 7.6207 9.60354 7.54927C9.76714 7.47784 9.94322 7.43939 10.1217 7.43617L10.1251 7.42946ZM13.3343 7.42946C13.6774 7.4316 14.0066 7.56494 14.2544 7.80216C14.5022 8.03937 14.6499 8.36249 14.667 8.70512L13.7707 8.72858C13.7804 8.66422 13.7761 8.59854 13.7582 8.53598C13.7402 8.47342 13.709 8.41543 13.6666 8.36602C13.623 8.31782 13.5696 8.27947 13.51 8.25343C13.4504 8.22739 13.3859 8.21426 13.3209 8.21496C13.2567 8.21651 13.1936 8.2317 13.1357 8.25948C13.0778 8.28726 13.0265 8.32701 12.9852 8.37611C12.944 8.42608 12.914 8.4843 12.8972 8.54684C12.8804 8.60938 12.8772 8.67479 12.8878 8.73867L12.0117 8.7588C12.0117 8.4231 12.1459 8.09075 12.3776 7.85241C12.5017 7.7233 12.6501 7.62005 12.8143 7.5486C12.9785 7.47716 13.1553 7.43895 13.3343 7.43617V7.42946ZM11.723 8.84608L12.6931 10.2661L11.8136 11.0214L10.8267 10.3399L11.723 8.84608Z" fill="white"/>
<defs>
<linearGradient id="paint0_linear_322_348" x1="15.3619" y1="7.13069" x2="6.96955" y2="22.8848" gradientUnits="userSpaceOnUse">
<stop stop-color="#92191C"/>
<stop offset="1" stop-color="#A11C38"/>
</linearGradient>
</defs>
</svg>
