<svg width="24" height="24" viewBox="0 0 24 24" fill="none" xmlns="http://www.w3.org/2000/svg">
<rect width="24" height="24" fill="#2A2B2F"/>
<path d="M19.3574 13.396C20.2604 14.151 20.1029 15.246 19.5519 15.7504C19.81 18.1004 18.2204 18.005 17.9645 17.1034C17.1865 18.1148 16.623 17.7521 16.5296 17.6875C15.5694 18.356 14.0079 19 12.077 19C10.4215 19 8.89507 18.5116 7.67206 17.689C7.07798 18.0804 6.46453 17.8479 6.11651 17.3055C4.86686 18.6041 4.27388 17.1186 4.63045 16.1973C3.73591 15.7597 3.77719 14.6992 4.85764 13.4026C4.81735 13.1286 4.79656 12.8491 4.79656 12.5653C4.79656 10.0874 6.52161 7.35116 8.70377 6.86153C7.27733 5.9441 8.77758 4.85428 10.2788 5.9545C10.7964 4.71356 12.085 4.7078 12.1216 5.79069C14.095 5.75921 15.1939 6.48222 16.1779 6.99107C16.7156 7.26913 17.3659 7.5652 18.124 7.59976C19.0432 7.64167 19.5179 8.61631 18.5407 9.37175C19.1161 10.3278 19.351 11.2949 19.3574 13.396Z" fill="#DF8958"/>
<path d="M16.9258 8.89863C17.5761 8.90077 17.9931 9.1065 19.0759 8.55206C19.045 8.81948 18.8807 9.10889 18.5407 9.37176C18.58 9.4371 18.6177 9.50249 18.6539 9.56829C17.7897 9.49793 17.2059 9.18076 16.9258 8.89863Z" fill="#C76C33"/>
<path d="M17.6416 14.3636C17.8589 15.2074 18.6954 15.7713 19.5519 15.7504C19.81 18.1004 18.2204 18.005 17.9645 17.1034C17.1865 18.1148 16.623 17.7521 16.5296 17.6876C15.5694 18.356 14.0079 19 12.077 19C10.4215 19 8.89507 18.5117 7.67206 17.689C7.07798 18.0804 6.46453 17.8479 6.11651 17.3055C4.86686 18.6041 4.27388 17.1186 4.63045 16.1973C3.73591 15.7597 3.77719 14.6992 4.85764 13.4026C4.81735 13.1286 4.79656 12.8491 4.79656 12.5653C4.79656 10.0875 6.52161 7.35118 8.70377 6.86154C8.13812 6.49774 8.03269 6.10683 8.20504 5.83612C8.42905 6.40002 9.18151 6.90862 10.0938 6.96185C7.89994 7.66003 8.5607 8.51697 9.75843 9.15915C11.3797 11.6876 17.5421 12.757 17.6416 14.3636Z" fill="#C76C33"/>
<path d="M9.38119 9.07447C8.98551 9.07418 8.55551 9.13732 8.08728 9.3055C7 9.69603 6.42669 10.598 6.1893 11.5874C6.88858 11.0904 7.45899 10.7837 8.6144 10.723C10.4873 10.6247 11.1351 11.9746 11.146 12.5507C11.1577 13.174 10.8945 13.5348 10.4189 13.7941C9.86928 14.0937 8.72064 14.1434 8.4001 14.1388C7.59826 14.1272 7.10319 13.9928 6.153 13.7901C6.6715 16.3794 9.16872 17.9709 12.1216 17.9709C15.0746 17.9709 17.5718 16.3794 18.0903 13.7901C17.1402 13.9927 16.6451 14.1271 15.8434 14.1387C15.5228 14.1433 14.3742 14.0936 13.8246 13.794C13.3489 13.5347 13.0857 13.174 13.0975 12.5506C13.1084 11.9746 13.7561 10.6246 15.6291 10.723C16.7843 10.7836 17.3547 11.0902 18.0539 11.5872C17.8165 10.5979 17.2432 9.696 16.156 9.3055C14.2831 8.63278 13.0218 9.64077 12.1216 9.66521C11.4465 9.64688 10.5683 9.07531 9.38119 9.07447ZM18.0539 11.5872C18.1101 11.8215 18.1476 12.0607 18.1685 12.2992C18.1476 12.0608 18.1104 11.8216 18.0542 11.5874C18.0541 11.5873 18.054 11.5873 18.0539 11.5872ZM18.1794 12.4489C18.1842 12.5299 18.1873 12.6107 18.1884 12.6911C18.1886 12.7006 18.1886 12.71 18.1887 12.7195C18.1886 12.71 18.1888 12.7006 18.1886 12.691C18.1874 12.6107 18.1842 12.5299 18.1794 12.4489ZM18.0903 13.7901C18.0904 13.79 18.0905 13.79 18.0905 13.79C18.0914 13.7858 18.0921 13.7816 18.0929 13.7774C18.0921 13.7816 18.0911 13.7858 18.0903 13.7901ZM6.153 13.7901C6.15274 13.7888 6.15247 13.7875 6.15221 13.7862C6.15246 13.7875 6.15267 13.7888 6.15293 13.7901C6.15295 13.7901 6.15298 13.79 6.153 13.7901ZM6.1893 11.5874C6.18928 11.5874 6.18927 11.5875 6.18923 11.5875C6.1888 11.5893 6.18841 11.5911 6.18797 11.593C6.18841 11.5911 6.18886 11.5892 6.1893 11.5874Z" fill="#E8E7E5"/>
<path d="M9.35547 9.07466C8.96689 9.07709 8.54539 9.14108 8.08729 9.30562C7 9.69615 6.42669 10.5981 6.18931 11.5875C6.49979 11.3668 6.78495 11.1838 7.1071 11.043C7.40181 10.194 8.19412 9.47056 9.61928 9.08231C9.53307 9.0768 9.44514 9.0741 9.35547 9.07466ZM7.82441 14.1058C7.31067 14.0527 6.8565 13.9403 6.153 13.7902C6.6715 16.3795 9.16873 17.971 12.1216 17.971C14.6912 17.971 16.9157 16.766 17.7917 14.747C13.7221 17.8976 9.5678 16.3922 7.82441 14.1058ZM6.153 13.7902C6.15274 13.7889 6.15247 13.7876 6.15221 13.7863C6.15246 13.7876 6.15267 13.7889 6.15293 13.7902C6.15295 13.7902 6.15298 13.7902 6.153 13.7902ZM6.05462 12.8378C6.05459 12.8339 6.05459 12.8299 6.05455 12.8259C6.05459 12.8299 6.05457 12.8339 6.05462 12.8378ZM6.18931 11.5875C6.18929 11.5875 6.18927 11.5876 6.18923 11.5876C6.1888 11.5894 6.18841 11.5912 6.18797 11.5931C6.18841 11.5912 6.18886 11.5894 6.18931 11.5875Z" fill="#D3D0D6"/>
<path d="M11.146 12.5507C11.1351 11.9747 10.4873 10.6247 8.61439 10.7231C7.45894 10.7837 6.88855 11.0904 6.18922 11.5875C6.10211 11.9506 6.06025 12.3254 6.05484 12.6911C6.04917 13.0746 6.08311 13.4414 6.15293 13.7901C7.10317 13.9928 7.59823 14.1272 8.40009 14.1388C8.72063 14.1434 9.86927 14.0937 10.4189 13.7941C10.8945 13.5348 11.1578 13.174 11.146 12.5507Z" fill="#77889B"/>
<path d="M13.0975 12.5506C13.1084 11.9746 13.7562 10.6247 15.6291 10.723C16.7845 10.7836 17.3549 11.0903 18.0542 11.5874C18.1414 11.9505 18.1832 12.3254 18.1886 12.6911C18.1943 13.0745 18.1604 13.4413 18.0905 13.79C17.1403 13.9927 16.6452 14.1271 15.8434 14.1387C15.5228 14.1433 14.3742 14.0937 13.8246 13.794C13.3489 13.5347 13.0857 13.174 13.0975 12.5506Z" fill="#77889B"/>
<path d="M7.10516 11.0486C6.78323 11.1893 6.49829 11.3724 6.18797 11.593C6.10086 11.9561 6.059 12.3309 6.05359 12.6966C6.04792 13.0801 6.08185 13.4469 6.15168 13.7956C6.85706 13.946 7.31161 14.0589 7.82703 14.1118C7.16086 13.2661 6.83564 12.1135 7.10516 11.0486Z" fill="#5E6F7E"/>
<path d="M10.442 12.7179C10.4401 13.1578 10.0114 13.2493 9.85388 12.8648C9.75302 12.6186 9.54796 12.4951 9.27348 12.5079C9.04681 12.5185 8.83614 12.7057 8.78751 12.8594C8.67552 13.2134 8.18525 13.1517 8.1748 12.7898C8.16001 12.2775 8.6637 11.7754 9.29698 11.7458C9.93025 11.7161 10.444 12.278 10.442 12.7179Z" fill="#333A42"/>
<path d="M12.7009 13.8692C12.7374 13.8246 12.7644 13.7715 12.7721 13.7147C12.7797 13.6579 12.7666 13.5974 12.7306 13.5525C12.7058 13.5214 12.6714 13.4989 12.6346 13.4835C12.5977 13.468 12.5584 13.4594 12.5189 13.4526C12.388 13.4301 12.2545 13.4276 12.1217 13.4276C11.9888 13.4276 11.8553 13.4301 11.7244 13.4526C11.685 13.4594 11.6456 13.468 11.6087 13.4835C11.5719 13.4989 11.5375 13.5214 11.5127 13.5525C11.4767 13.5974 11.4636 13.6579 11.4713 13.7147C11.4789 13.7715 11.506 13.8246 11.5425 13.8692C11.609 13.9504 11.7057 14.0039 11.8073 14.0332C11.9089 14.0625 12.0158 14.069 12.1217 14.069C12.2275 14.069 12.3344 14.0625 12.436 14.0332C12.5376 14.0039 12.6343 13.9504 12.7009 13.8692Z" fill="#333A42"/>
<path d="M12.6467 15.1442C12.8643 15.1652 13.0948 15.1225 13.2669 15.0016C13.3084 14.9724 13.3467 14.9385 13.3722 14.8971C13.3977 14.8558 13.4095 14.8064 13.3967 14.7606C13.3849 14.7181 13.3519 14.681 13.309 14.66C13.2661 14.6389 13.214 14.6338 13.1666 14.6447C13.1338 14.6524 13.1036 14.6672 13.0729 14.6802C12.9495 14.7326 12.8111 14.7572 12.6748 14.7484C12.5385 14.7397 12.4048 14.6973 12.2943 14.6254C12.2267 14.5814 12.168 14.5265 12.1217 14.4642C12.0754 14.5265 12.0166 14.5814 11.949 14.6254C11.8385 14.6973 11.7048 14.7397 11.5685 14.7484C11.4322 14.7572 11.2938 14.7326 11.1704 14.6802C11.1397 14.6672 11.1096 14.6524 11.0767 14.6447C11.0293 14.6338 10.9772 14.6389 10.9343 14.66C10.8914 14.681 10.8585 14.7181 10.8466 14.7606C10.8338 14.8064 10.8456 14.8558 10.8711 14.8971C10.8966 14.9385 10.9349 14.9724 10.9764 15.0016C11.1486 15.1225 11.379 15.1652 11.5966 15.1442C11.7857 15.1259 11.9689 15.0619 12.1217 14.9606C12.2744 15.0619 12.4577 15.1259 12.6467 15.1442Z" fill="#333A42"/>
<path d="M13.8002 12.7132C13.8004 13.153 14.2287 13.2462 14.3878 12.8623C14.4896 12.6165 14.6952 12.4938 14.9696 12.5077C15.1962 12.5192 15.4061 12.7072 15.4541 12.8611C15.5647 13.2155 16.0552 13.1557 16.0671 12.7939C16.084 12.2816 15.5823 11.7776 14.9491 11.7455C14.316 11.7134 13.8 12.2733 13.8002 12.7132Z" fill="#333A42"/>
</svg>
