<svg width="24" height="24" viewBox="0 0 24 24" fill="none" xmlns="http://www.w3.org/2000/svg">
<rect width="24" height="24" fill="white"/>
<path d="M14.6994 13.7843H5.27452C4.95426 13.7843 4.67975 14.0588 4.67975 14.3791C4.67975 14.6993 4.95426 14.9738 5.27452 14.9738H14.6994C15.0196 14.9738 15.2941 14.6993 15.2941 14.3791C15.2941 14.0588 15.0196 13.7843 14.6994 13.7843Z" fill="black"/>
<path d="M14.6994 15.7516H5.27452C4.95426 15.7516 4.67975 16.0262 4.67975 16.3464C4.67975 16.6667 4.95426 16.9412 5.27452 16.9412H14.6994C15.0196 16.9412 15.2941 16.6667 15.2941 16.3464C15.2941 16.0262 15.0196 15.7516 14.6994 15.7516Z" fill="black"/>
<path d="M14.6994 17.7647H5.27452C4.95426 17.7647 4.67975 18.0392 4.67975 18.3595C4.67975 18.6797 4.95426 18.9543 5.27452 18.9543H14.6994C15.0196 18.9543 15.2941 18.6797 15.2941 18.3595C15.2941 18.0392 15.0196 17.7647 14.6994 17.7647Z" fill="black"/>
<path d="M18.7712 13.7843C18.451 13.7843 18.1765 14.0588 18.1765 14.3791V18.4052C18.1765 18.7255 18.451 19 18.7712 19C19.0915 19 19.366 18.7255 19.366 18.4052V14.3791C19.3202 14.0131 19.0457 13.7843 18.7712 13.7843Z" fill="black"/>
<path d="M16.7582 13.7843C16.4379 13.7843 16.1634 14.0588 16.1634 14.3791V18.4052C16.1634 18.7255 16.4379 19 16.7582 19C17.0784 19 17.3529 18.7255 17.3529 18.4052V14.3791C17.3072 14.0131 17.0784 13.7843 16.7582 13.7843Z" fill="black"/>
<path d="M18.268 11.2223C18.8627 10.902 19.183 10.0785 19.183 8.66018C19.183 7.01312 18.7712 5.09155 17.6732 5.09155C16.5752 5.09155 16.1634 7.01312 16.1634 8.66018C16.1634 10.0785 16.4837 10.902 17.0784 11.2223V12.3203C17.0784 12.6406 17.3529 12.9151 17.6732 12.9151C17.9935 12.9151 18.268 12.6406 18.268 12.3203V11.2223ZM17.6732 6.41835C17.8562 6.78436 18.0392 7.56214 18.0392 8.66018C18.0392 9.80397 17.8105 10.2157 17.6732 10.2157C17.5359 10.2157 17.3072 9.80397 17.3072 8.66018C17.3529 7.56214 17.5359 6.78436 17.6732 6.41835Z" fill="black"/>
<path d="M15.2026 8.66013C15.2026 8.61438 15.1569 8.61438 15.1569 8.56863L13.6928 6.69281C13.6013 6.55556 13.4183 6.46405 13.2353 6.46405H12.5033V5.59477C12.5033 5.27451 12.2287 5 11.9085 5C11.5882 5 11.3137 5.27451 11.3137 5.59477V6.5098H9.5294H9.02613H6.64704C6.46404 6.5098 6.32678 6.60131 6.18953 6.73856L4.72547 8.61438C4.72547 8.66013 4.67972 8.66013 4.67972 8.70588L4.63397 8.75164C4.67972 8.79739 4.67972 8.88889 4.67972 8.93464V12.3203C4.67972 12.6405 4.95423 12.915 5.27449 12.915H7.65358H11.0392H14.6993C15.0196 12.915 15.2941 12.6405 15.2941 12.3203V8.93464C15.2941 8.84314 15.2941 8.79739 15.2484 8.75164C15.2026 8.70588 15.2026 8.70588 15.2026 8.66013ZM8.2026 11.7712H5.82351V9.52941H10.4902V11.7712H8.2026ZM11.3137 8.38562L10.7647 7.6536H12.9608L13.5098 8.38562H11.3137ZM9.30064 7.6536L9.84966 8.38562H6.41829L6.96731 7.6536H9.30064ZM11.634 9.52941H14.1503V11.7712H11.634V9.52941Z" fill="black"/>
</svg>
