<svg width="24" height="24" viewBox="0 0 24 24" fill="none" xmlns="http://www.w3.org/2000/svg">
<rect width="24" height="24" fill="#43488A"/>
<path d="M17.6027 4.43586C18.4714 4.87987 19.2733 5.73364 19.6919 6.65594C19.8574 7.06854 20.0311 7.47544 19.9953 8.43343C19.9642 9.29719 19.9056 9.63698 19.6457 10.2095C18.9575 11.73 17.6033 12.7465 16.0568 12.8507L15.2211 12.9093L14.9281 14.1128C14.6819 15.1151 14.6591 15.452 14.6591 15.452C14.9384 15.759 15.5727 15.9489 15.8382 16.6599C16.2002 17.3844 16.1588 18.4131 15.6962 19.0084C14.9391 19.9793 13.8104 20.2705 12.8168 19.7337C11.9135 19.2426 11.4398 18.0276 11.7218 16.964C11.7894 16.6948 11.7108 16.6127 10.6269 15.8768L9.45267 15.0701L9.02379 15.4327C6.98078 17.1274 3.98831 15.6312 4.00003 12.9086C4.00003 11.1553 5.34458 9.78903 7.07042 9.79974C7.9392 9.79974 8.45909 9.99819 9.1024 10.6064L9.57609 11.0504L10.6262 10.5007L11.6881 9.96321L11.575 9.57773C11.4164 9.00522 11.4509 7.73171 11.6425 7.08853C11.8577 6.31757 12.5237 5.35887 13.156 4.87987C14.4433 3.8969 16.2036 3.72129 17.6033 4.43514L17.6027 4.43586ZM9.84569 14.3441L12.199 16.0188C12.199 16.0188 12.9133 15.3956 13.8814 15.3078L14.484 12.6594C14.484 12.6594 12.6223 12.0355 12.0949 10.6821L9.91395 11.7528C9.91395 11.7528 10.4297 13.0863 9.84638 14.3427L9.84569 14.3441Z" fill="white"/>
</svg>
