<svg width="24" height="24" viewBox="0 0 24 24" fill="none" xmlns="http://www.w3.org/2000/svg">
<rect width="24" height="24" fill="#595AFF"/>
<g clip-path="url(#clip0_322_294)">
<path d="M18.702 13.5918C18.4962 14.7205 16.8588 15.9557 14.9782 16.1951C13.9976 16.3198 13.0321 16.4345 12.0025 16.3841C10.3188 16.3019 8.99019 15.9557 8.99019 15.9557C8.99019 16.1304 9.0003 16.2968 9.02052 16.4524C9.23942 18.2238 10.6682 18.3299 12.0216 18.3794C13.3876 18.4292 14.604 18.0204 14.604 18.0204L14.6601 19.3369C14.6601 19.3369 13.7046 19.8838 12.0025 19.9844C11.0639 20.0394 9.89853 19.9592 8.54116 19.5762C5.59725 18.7456 5.09096 15.4003 5.01349 12.006C4.98988 10.9982 5.00444 10.0478 5.00444 9.25306C5.00444 5.78217 7.13769 4.7648 7.13769 4.7648C8.21334 4.23818 10.059 4.01672 11.9779 4H12.025C13.9438 4.01672 15.7907 4.23818 16.8663 4.7648C16.8663 4.7648 18.9995 5.78217 18.9995 9.25306C18.9995 9.25306 19.0262 11.8139 18.702 13.5918Z" fill="white"/>
<path d="M16.4832 9.52235V13.725H14.9214V9.64588C14.9214 8.786 14.582 8.34955 13.9031 8.34955C13.1526 8.34955 12.7764 8.86729 12.7764 9.89104V12.1238H11.2237V9.89104C11.2237 8.86729 10.8475 8.34955 10.0969 8.34955C9.41804 8.34955 9.07866 8.786 9.07866 9.64588V13.725H7.51678V9.52235C7.51678 8.66342 7.72194 7.98086 8.13402 7.47588C8.55895 6.9709 9.11545 6.71204 9.80627 6.71204C10.6055 6.71204 11.2108 7.03952 11.611 7.69458L12 8.38981L12.3891 7.69458C12.7892 7.03952 13.3945 6.71204 14.1938 6.71204C14.8846 6.71204 15.4411 6.9709 15.8661 7.47588C16.2781 7.98086 16.4832 8.66342 16.4832 9.52235Z" fill="#595AFF"/>
</g>
<defs>
<clipPath id="clip0_322_294">
<rect width="14" height="16" fill="white" transform="translate(5 4)"/>
</clipPath>
</defs>
</svg>
