<svg width="24" height="24" viewBox="0 0 24 24" fill="none" xmlns="http://www.w3.org/2000/svg">
<rect width="24" height="24" fill="#FB4E4E"/>
<path d="M5.56338 7.50001C5.38117 7.49928 5.20036 7.53064 5.0293 7.59283C4.7263 7.69859 4.47652 7.88884 4.28082 8.16276C4.09372 8.42778 4 8.72359 4 9.05038V14.8552C4 15.2793 4.15168 15.6461 4.45433 15.9552C4.76626 16.2557 5.13619 16.4058 5.56338 16.4058C6.00014 16.4058 6.36977 16.2557 6.67275 15.9555C6.98468 15.6462 7.14025 15.2793 7.14025 14.8552V13.7998C7.14356 13.5712 7.38094 13.6313 7.50116 13.7998C7.72567 14.1857 8.20219 14.5173 8.7572 14.5153V14.5156C9.31184 14.5133 9.77282 14.2415 10.0132 13.7998C10.1043 13.6934 10.361 13.5118 10.3875 13.7998V14.8552C10.3875 15.2793 10.5388 15.6461 10.8415 15.9552C11.1537 16.2557 11.5232 16.4058 11.9507 16.4058C12.3871 16.4058 12.7571 16.2557 13.06 15.9555C13.372 15.6462 13.5276 15.2793 13.5276 14.8552V9.05038C13.5276 8.72359 13.4296 8.42778 13.2339 8.16276C13.0465 7.88852 12.8014 7.69859 12.4988 7.59283C12.3206 7.53078 12.1425 7.50001 11.9643 7.50001C11.4832 7.50001 11.0778 7.68555 10.748 8.05668L9.16155 9.89812C9.12611 9.92472 9.00786 10.1273 8.75685 10.1273C8.50651 10.1273 8.40194 9.92474 8.36617 9.89846L6.76601 8.05668C6.44548 7.68555 6.04451 7.50001 5.56338 7.50001ZM17.3283 9.86264C16.4022 9.86264 15.6099 10.1894 14.9509 10.8429C14.3006 11.4878 13.9756 12.265 13.9756 13.1747C13.9756 14.0932 14.3006 14.8792 14.9509 15.5328C15.6099 16.1776 16.4022 16.5 17.3283 16.5C18.2456 16.5 19.0338 16.1776 19.6928 15.5328C19.8975 15.3296 20 15.0825 20 14.7913C20 14.4996 19.8975 14.2523 19.6928 14.0491C19.4879 13.8461 19.2385 13.7446 18.945 13.7446C18.6508 13.7446 18.4014 13.8461 18.1967 14.0491C17.9563 14.2965 17.6668 14.4201 17.3283 14.4201C16.9813 14.4201 16.683 14.3009 16.4335 14.0625C16.1929 13.8151 16.0726 13.5191 16.0726 13.1747C16.0726 12.8393 16.1976 12.5522 16.447 12.3136C16.5717 12.1811 16.7231 12.0928 16.9009 12.0486C16.9458 12.0399 16.9813 12.0442 17.008 12.0617C17.0258 12.0884 17.0168 12.115 16.9811 12.1414L16.714 12.4196C16.5091 12.6228 16.4066 12.8658 16.4066 13.1482C16.4066 13.4397 16.4957 13.6737 16.6737 13.8503C16.8517 14.0271 17.1012 14.1153 17.422 14.1153C17.6445 14.1153 17.8671 14.005 18.0896 13.7843L19.6393 12.2608C19.8442 12.0574 19.9467 11.81 19.9467 11.5188C19.9467 11.2271 19.8442 10.9799 19.6393 10.7769C19.016 10.1674 18.2456 9.86264 17.3283 9.86264Z" fill="white"/>
</svg>
