<svg width="24" height="24" viewBox="0 0 24 24" fill="none" xmlns="http://www.w3.org/2000/svg">
<rect width="24" height="24" fill="#A3D200"/>
<path d="M5.95228 7.00002C5.72475 6.99911 5.49895 7.03784 5.28535 7.11466C4.90697 7.24529 4.59505 7.48028 4.35068 7.81861C4.11704 8.14595 4 8.51131 4 8.91496V16.0848C4 16.6085 4.18941 17.0617 4.56735 17.4434C4.95687 17.8146 5.41883 18 5.95228 18C6.49769 18 6.95926 17.8146 7.33761 17.4439C7.72714 17.0617 7.92141 16.6085 7.92141 16.0848V14.7812C7.92555 14.4988 8.22197 14.5731 8.3721 14.7812C8.65246 15.2578 9.24751 15.6674 9.94058 15.665V15.6654C10.6332 15.6625 11.2089 15.3268 11.509 14.7812C11.6228 14.6497 11.9433 14.4254 11.9764 14.7812V16.0848C11.9764 16.6085 12.1654 17.0617 12.5433 17.4434C12.9333 17.8146 13.3946 18 13.9285 18C14.4735 18 14.9354 17.8146 15.3138 17.4439C15.7033 17.0617 15.8976 16.6085 15.8976 16.0848V8.91496C15.8976 8.51131 15.7753 8.14595 15.5309 7.81861C15.2969 7.47988 14.9908 7.24529 14.6129 7.11466C14.3904 7.03801 14.168 7.00002 13.9455 7.00002C13.3447 7.00002 12.8385 7.22919 12.4266 7.68758L10.4455 9.96204C10.4013 9.99489 10.2536 10.245 9.94015 10.245C9.62754 10.245 9.49696 9.99492 9.45229 9.96246L7.45407 7.68758C7.05381 7.22919 6.55309 7.00002 5.95228 7.00002ZM18.2982 7.00021C17.8309 7.00021 17.4304 7.16393 17.0968 7.49115C16.7743 7.80756 16.613 8.19493 16.613 8.65333C16.613 9.11172 16.7743 9.50463 17.0968 9.83186C17.4304 10.1483 17.8309 10.3065 18.2982 10.3065C18.7655 10.3065 19.1659 10.1483 19.4997 9.83186C19.8333 9.50463 20 9.11172 20 8.65333C20 8.19493 19.8333 7.80756 19.4997 7.49115C19.1659 7.16393 18.7655 7.00021 18.2982 7.00021ZM18.3147 10.6341C17.8474 10.6341 17.4468 10.7978 17.1133 11.1251C16.7797 11.4525 16.613 11.8454 16.613 12.3038V16.3469C16.613 16.8053 16.7797 17.1982 17.1133 17.5254C17.4471 17.8418 17.8477 18 18.3147 18C18.7822 18 19.1772 17.8418 19.4997 17.5254C19.8333 17.1982 20 16.8053 20 16.3469V12.3038C20 11.8451 19.8333 11.4523 19.4997 11.1251C19.177 10.7978 18.7819 10.6341 18.3147 10.6341Z" fill="white"/>
</svg>
