<svg width="24" height="24" viewBox="0 0 24 24" fill="none" xmlns="http://www.w3.org/2000/svg">
<g clip-path="url(#clip0_330_341)">
<rect width="24" height="24" fill="#2A2B2F"/>
<path fill-rule="evenodd" clip-rule="evenodd" d="M12.3882 12.364C9.05915 7.80964 2.69299 6.76586 -1.83105 10.0327C-6.35508 13.2995 -7.32382 19.6398 -3.99478 24.1942L-3.74292 24.5388C-9.17182 17.4382 -9.43892 7.47769 -4.02682 0.178679L-3.93046 0.0506283C-0.57742 -4.40502 5.79381 -5.26058 10.3001 -1.86033C14.8063 1.53991 15.7412 7.90837 12.3882 12.364Z" fill="#F12D4C"/>
<path fill-rule="evenodd" clip-rule="evenodd" d="M12.3882 12.364C7.08852 14.1565 4.30083 19.9147 6.1617 25.2252C8.02257 30.5356 13.8273 33.3875 19.127 31.595L19.4781 31.4763C12.8874 33.8345 5.20921 32.7003 -0.591646 27.8328C-1.78457 26.8318 -2.8358 25.7252 -3.74292 24.5388L-3.99478 24.1942C-7.32381 19.6398 -6.35507 13.2995 -1.83104 10.0327C2.69299 6.76588 9.05916 7.80966 12.3882 12.364Z" fill="#A63FDB"/>
<path fill-rule="evenodd" clip-rule="evenodd" d="M12.3882 12.364C12.4223 17.9688 17.0032 22.54 22.62 22.574C28.2368 22.6081 32.7624 18.0922 32.7283 12.4875L32.7276 12.3591C32.7875 17.0088 31.2555 21.6837 28.049 25.505C25.6882 28.3184 22.7143 30.3184 19.4781 31.4763L19.127 31.595C13.8273 33.3875 8.02258 30.5356 6.1617 25.2251C4.30083 19.9146 7.08853 14.1565 12.3882 12.364Z" fill="#00ACFC"/>
<path fill-rule="evenodd" clip-rule="evenodd" d="M12.3882 12.364C17.7406 14.1284 23.4603 11.2461 25.1636 5.9262C26.8669 0.606294 23.9086 -5.13666 18.5562 -6.90104L18.1181 -7.04548C20.697 -6.26033 23.1676 -4.95113 25.368 -3.10472C30.1485 0.906555 32.6534 6.6137 32.7276 12.3591L32.7283 12.4875C32.7624 18.0922 28.2367 22.6082 22.62 22.5741C17.0032 22.54 12.4223 17.9688 12.3882 12.364Z" fill="#14E04F"/>
<path d="M12.3882 12.364C15.7412 7.90832 14.8063 1.53986 10.3001 -1.86038C5.79381 -5.26063 -0.577423 -4.40507 -3.93046 0.0505781L-4.02683 0.178631C-3.78662 -0.145317 -3.53523 -0.464024 -3.27261 -0.777004C2.07219 -7.14669 10.5602 -9.34657 18.1181 -7.04556L18.5562 -6.90112C23.9086 -5.13674 26.8669 0.606213 25.1636 5.92612C23.4603 11.246 17.7406 14.1283 12.3882 12.364Z" fill="url(#paint0_linear_330_341)"/>
<path style="mix-blend-mode:multiply" d="M12.3882 12.364C15.7412 7.90832 14.8063 1.53986 10.3001 -1.86038C5.79381 -5.26063 -0.577423 -4.40507 -3.93046 0.0505781L-4.02683 0.178631C-3.78662 -0.145317 -3.53523 -0.464024 -3.27261 -0.777004C2.07219 -7.14669 10.5602 -9.34657 18.1181 -7.04556L18.5562 -6.90112C23.9086 -5.13674 26.8669 0.606213 25.1636 5.92612C23.4603 11.246 17.7406 14.1283 12.3882 12.364Z" fill="#FE7D19" fill-opacity="0.1"/>
<path d="M10.1442 15.2121H13.0476C15.7827 15.2121 18 13.1499 18 10.606C18 8.06219 15.7827 6 13.0476 6H8.85714C7.27919 6 6 7.18973 6 8.65733V19L10.1442 15.2121Z" fill="white"/>
</g>
<defs>
<linearGradient id="paint0_linear_330_341" x1="-450.221" y1="2619.59" x2="815.067" y2="624.092" gradientUnits="userSpaceOnUse">
<stop stop-color="#FFB000"/>
<stop offset="1" stop-color="#FF7725"/>
</linearGradient>
<clipPath id="clip0_330_341">
<rect width="24" height="24" fill="white"/>
</clipPath>
</defs>
</svg>
