<svg width="24" height="24" viewBox="0 0 24 24" fill="none" xmlns="http://www.w3.org/2000/svg">
<rect width="24" height="24" fill="#101A25"/>
<g clip-path="url(#clip0_322_298)">
<path d="M11.0742 4V20H7.5V5.24551L8.61962 4H11.0742Z" fill="#FBA457"/>
<path d="M8.61962 6.49102C9.23796 6.49102 9.73923 5.93338 9.73923 5.24551C9.73923 4.55763 9.23796 4 8.61962 4C8.00127 4 7.5 4.55763 7.5 5.24551C7.5 5.93338 8.00127 6.49102 8.61962 6.49102Z" fill="#FBA457"/>
<path d="M15.3804 12C15.9987 12 16.5 11.4424 16.5 10.7545C16.5 10.0666 15.9987 9.50897 15.3804 9.50897C14.762 9.50897 14.2608 10.0666 14.2608 10.7545C14.2608 11.4424 14.762 12 15.3804 12Z" fill="#FBA457"/>
<path d="M12.8828 12V4H16.5L16.5 10.7545L15.3804 12H12.8828Z" fill="#FBA457"/>
<path d="M15.3804 20C15.9987 20 16.5 19.4424 16.5 18.7545C16.5 18.0666 15.9987 17.509 15.3804 17.509C14.762 17.509 14.2608 18.0666 14.2608 18.7545C14.2608 19.4424 14.762 20 15.3804 20Z" fill="#FBA457"/>
<path d="M12.8828 20V16.0239H16.5L16.5 18.7545L15.3804 20H12.8828Z" fill="#FBA457"/>
</g>
<defs>
<clipPath id="clip0_322_298">
<rect width="9" height="16" fill="white" transform="translate(7.5 4)"/>
</clipPath>
</defs>
</svg>
